<?xml version="1.0" encoding="UTF-8"?>
<svg version="1.1" xmlns="http://www.w3.org/2000/svg" width="500" height="500">
<path d="M0 0 C165 0 330 0 500 0 C500 165 500 330 500 500 C335 500 170 500 0 500 C0 335 0 170 0 0 Z " fill="#000000" transform="translate(0,0)"/>
<path d="M0 0 C3.4008502 1.88132139 4.68992213 2.98553981 5.82958984 6.71411133 C6.04393473 10.84715976 4.73001747 13.43480029 2.7890625 16.94921875 C2.03908635 18.37532968 1.28943067 19.80160917 0.54003906 21.22802734 C0.12999634 21.99499939 -0.28004639 22.76197144 -0.70251465 23.55218506 C-2.54456812 27.02737344 -4.31777728 30.53631029 -6.09518433 34.04489136 C-8.59260668 38.97380746 -11.11072957 43.89216304 -13.625 48.8125 C-14.15667786 49.85345825 -14.68835571 50.8944165 -15.23614502 51.96691895 C-21.76908314 64.75612336 -28.32056771 77.53476325 -34.94873047 90.27490234 C-39.911203 99.81436827 -44.83307693 109.37450235 -49.75 118.9375 C-50.14934753 119.71395874 -50.54869507 120.49041748 -50.96014404 121.29040527 C-52.09352938 123.49422641 -53.22654303 125.69823812 -54.359375 127.90234375 C-54.69826752 128.56143234 -55.03716003 129.22052094 -55.38632202 129.89958191 C-56.94054201 132.92513114 -58.48207034 135.95610508 -60 139 C-59.41192975 138.99723462 -58.8238595 138.99446924 -58.21796894 138.99162006 C-43.90423001 138.92534653 -29.59050479 138.87571277 -15.27664661 138.84456348 C-8.35454102 138.82909924 -1.43253788 138.80801832 5.48950195 138.77368164 C12.16790999 138.74056931 18.84618952 138.7231534 25.524683 138.71536827 C28.07441192 138.70981924 30.62413493 138.69898356 33.17381859 138.68280983 C36.741252 138.66107724 40.30824361 138.6580314 43.87573242 138.65942383 C44.93309097 138.648638 45.99044952 138.63785217 47.07984924 138.6267395 C56.11698011 138.66498375 56.11698011 138.66498375 60 142 C61.63023814 145.26047629 61.4673535 147.37801035 61 151 C56.50533933 158.73420856 47.70454001 164.62576924 40.95654297 170.34179688 C38.53453759 172.39448723 36.12440014 174.46076173 33.71508789 176.52832031 C32.56778402 177.51279686 31.41982993 178.49651612 30.27124023 179.47949219 C25.36669708 183.67729116 20.48809942 187.90456253 15.61425781 192.13793945 C11.932708 195.33323782 8.23623029 198.50995491 4.52661133 201.67260742 C-0.28201319 205.77285686 -5.033926 209.91017241 -9.6875 214.1875 C-14.07355646 218.21393836 -18.61741628 221.98109722 -23.25 225.71875 C-26.08099578 228.06718968 -28.79383598 230.50909902 -31.5 233 C-35.94727112 237.09351091 -40.54717463 240.92442499 -45.25 244.71875 C-49.03905407 247.86194258 -52.63269352 251.20158595 -56.25390625 254.53515625 C-58.91875166 256.92707297 -61.64831825 259.19254884 -64.4375 261.4375 C-68.97316443 265.09571015 -73.2570117 268.94742965 -77.51928711 272.91381836 C-81.60661006 276.69490558 -85.88043244 280.19689966 -90.21875 283.6875 C-93.24019188 286.1997101 -96.12441773 288.82400827 -99 291.5 C-102.73329478 294.9741715 -106.52370843 298.30068494 -110.5 301.5 C-115.60811746 305.61302964 -120.41753456 309.9850156 -125.2265625 314.4375 C-128.09293604 317.08586766 -130.9788174 319.69869869 -133.9453125 322.234375 C-135.52617453 323.59283439 -137.07821981 324.98488138 -138.6171875 326.390625 C-147.56643172 334.27389276 -147.56643172 334.27389276 -154.0546875 334.33203125 C-157.40966187 333.75939506 -158.89249988 332.63437515 -161 330 C-162.4472741 324.34122687 -161.58631906 321.00088625 -158.8125 316.0625 C-158.06510423 314.65433612 -157.31910076 313.24543271 -156.57421875 311.8359375 C-156.16220215 311.06862305 -155.75018555 310.30130859 -155.32568359 309.51074219 C-153.36587566 305.79901755 -151.51399165 302.03572195 -149.65258789 298.27392578 C-145.28159919 289.44253068 -140.81529403 280.66984322 -136.19604492 271.96606445 C-131.17362389 262.48164337 -126.28762417 252.92695824 -121.38623047 243.37963867 C-120.67285273 241.99007101 -119.95947379 240.60050397 -119.24609375 239.2109375 C-118.88008057 238.49788956 -118.51406738 237.78484161 -118.13696289 237.05018616 C-111.10633834 223.3590681 -104.05009235 209.68110006 -97 196 C-97.58807025 195.99945523 -98.1761405 195.99891047 -98.78203106 195.99834919 C-113.09595703 195.9833771 -127.40960654 195.94091316 -141.72335339 195.86790943 C-148.6454387 195.83326692 -155.56732503 195.80790492 -162.48950195 195.80444336 C-169.16813127 195.80107747 -175.84618433 195.77177973 -182.524683 195.72656822 C-185.07436523 195.71356487 -187.62410726 195.7092955 -190.17381859 195.71384621 C-193.7416749 195.71873164 -197.30805712 195.69274774 -200.87573242 195.65942383 C-201.93309097 195.66804947 -202.99044952 195.67667511 -204.07984924 195.68556213 C-211.23436256 195.57332578 -211.23436256 195.57332578 -215.11714172 192.66581726 C-217.60333015 189.14578386 -218.29393069 187.33547761 -218 183 C-214.43489015 176.94674056 -208.36863128 172.71911734 -202.95703125 168.41796875 C-199.85845538 165.88425876 -196.92503426 163.22902193 -194 160.5 C-189.39061364 156.2097821 -184.62210848 152.19584341 -179.71484375 148.24609375 C-176.89326505 145.9116941 -174.19409288 143.48009402 -171.5 141 C-167.05272888 136.90648909 -162.45282537 133.07557501 -157.75 129.28125 C-154.91900422 126.93281032 -152.20616402 124.49090098 -149.5 122 C-145.05272888 117.90648909 -140.45282537 114.07557501 -135.75 110.28125 C-131.96094593 107.13805742 -128.36730648 103.79841405 -124.74609375 100.46484375 C-122.08124834 98.07292703 -119.35168175 95.80745116 -116.5625 93.5625 C-112.56776014 90.34056899 -108.75445651 86.99344505 -105 83.5 C-100.39341882 79.21367036 -95.62873004 75.20248212 -90.7265625 71.25390625 C-86.87987291 68.07404967 -83.21844082 64.70683001 -79.54296875 61.33203125 C-73.48501233 55.77657813 -67.2099927 50.48462739 -60.92285156 45.19213867 C-57.51559097 42.31350599 -54.17316276 39.37905908 -50.875 36.375 C-47.56264202 33.36134097 -44.17787196 30.49289276 -40.6875 27.6875 C-36.46601914 24.27578134 -32.45919902 20.70689426 -28.5 17 C-8.856625 -1.3811501 -8.856625 -1.3811501 0 0 Z " fill="#FEAC32" transform="translate(337,91)"/>
<path d="M0 0 C0 0.66 0 1.32 0 2 C-0.66 2.66 -1.32 3.32 -2 4 C-2.6425235 6.06874034 -2.6425235 6.06874034 -3 8 C-4.32 8 -5.64 8 -7 8 C-7 8.66 -7 9.32 -7 10 C-9.56815643 12.87029248 -11.96133953 14.97620894 -15.25 17 C-18.16979807 18.72473774 -18.16979807 18.72473774 -18.875 21.5 C-18.98321818 23.66436351 -19 25.83293273 -19 28 C-13.34462244 29.19019182 -7.7889819 29.17305014 -2.03759766 29.20532227 C-0.39768356 29.22017166 -0.39768356 29.22017166 1.27536011 29.23532104 C4.87886409 29.26683733 8.48238124 29.29165446 12.0859375 29.31640625 C14.5884332 29.3369843 17.09092549 29.35798099 19.59341431 29.37937927 C25.50057415 29.42888086 31.40775672 29.47416885 37.31496489 29.51740164 C44.70350177 29.5717351 52.0919821 29.63263548 59.48046875 29.69335938 C72.65360732 29.80083337 85.82678414 29.90248471 99 30 C99 30.66 99 31.32 99 32 C83.96193912 32.11683596 68.92391343 32.20498934 53.88549519 32.25906086 C46.9027571 32.28483539 39.92030114 32.31997088 32.93774414 32.37719727 C26.20095624 32.43238307 19.46452217 32.46141034 12.72749901 32.47438622 C10.15541148 32.48363498 7.58334025 32.50169539 5.01137733 32.52865028 C1.41258506 32.56487149 -2.18499075 32.56994795 -5.78393555 32.56762695 C-6.85064484 32.58560333 -7.91735413 32.60357971 -9.01638794 32.62210083 C-16.23333201 32.57163424 -16.23333201 32.57163424 -20.12287903 29.67155457 C-22.5993877 26.14693994 -23.29383628 24.33408514 -23 20 C-19.3373214 13.78107695 -13.02736333 9.37913447 -7.453125 4.98046875 C-5.04746042 3.12125064 -5.04746042 3.12125064 -3.296875 1.23828125 C-2 0 -2 0 0 0 Z " fill="#D29C4A" transform="translate(142,254)"/>
<path d="M0 0 C0.95473709 -0.00708481 1.90947418 -0.01416962 2.8931427 -0.02146912 C3.94408112 -0.0189917 4.99501953 -0.01651428 6.07780457 -0.01396179 C7.73405602 -0.02162819 7.73405602 -0.02162819 9.42376709 -0.02944946 C13.08999487 -0.04339952 16.75603575 -0.04238434 20.42228699 -0.04008484 C22.96335928 -0.04396934 25.50443092 -0.0483035 28.04550171 -0.05307007 C33.37953561 -0.06054434 38.71350046 -0.06037033 44.04753113 -0.05497742 C50.20963048 -0.04894291 56.37150119 -0.06123281 62.53356153 -0.08254749 C68.46238556 -0.10230034 74.39113888 -0.10533546 80.31999779 -0.10181236 C82.84180424 -0.10232638 85.36361428 -0.10757922 87.88540077 -0.11762428 C91.41195444 -0.12994462 94.93797829 -0.12322247 98.46452332 -0.11161804 C99.50938904 -0.11926178 100.55425476 -0.12690552 101.63078308 -0.13478088 C110.56675152 -0.06970624 110.56675152 -0.06970624 114.46525574 3.26069641 C116.09549388 6.5211727 115.93260924 8.63870676 115.46525574 12.26069641 C112.12629715 17.44283734 107.74004324 21.17301592 102.46525574 24.26069641 C102.79525574 22.94069641 103.12525574 21.62069641 103.46525574 20.26069641 C104.45525574 20.26069641 105.44525574 20.26069641 106.46525574 20.26069641 C106.96025574 18.77569641 106.96025574 18.77569641 107.46525574 17.26069641 C108.45525574 16.60069641 109.44525574 15.94069641 110.46525574 15.26069641 C111.08137421 13.40257727 111.08137421 13.40257727 111.21525574 11.32319641 C111.29259949 10.63354797 111.36994324 9.94389954 111.44963074 9.23335266 C111.5734016 7.04558079 111.5734016 7.04558079 110.46525574 4.26069641 C107.58215723 3.15340063 104.75763386 3.1263038 101.69432068 3.10247803 C100.73802261 3.09268921 99.78172455 3.08290039 98.79644775 3.07281494 C97.23306923 3.06418175 97.23306923 3.06418175 95.6381073 3.05537415 C93.98400093 3.04052475 93.98400093 3.04052475 92.29647827 3.02537537 C88.64963431 2.9937747 85.00277731 2.96900847 81.35588074 2.94429016 C78.82810629 2.92371941 76.30033527 2.9027229 73.77256775 2.88131714 C67.79804924 2.83175264 61.82351309 2.78648405 55.84894633 2.74329478 C49.04604961 2.69387804 42.2432006 2.63897639 35.44035006 2.58361518 C21.4486965 2.46987474 7.45699712 2.36301848 -6.53474426 2.26069641 C-4.06967702 -0.20437083 -3.3903028 0.00836181 0 0 Z " fill="#ECAD54" transform="translate(282.5347442626953,229.7393035888672)"/>
<path d="M0 0 C0.66 0.33 1.32 0.66 2 1 C3.40336164 1.09383749 4.81107982 1.12629563 6.21757507 1.12698364 C7.54437538 1.13121338 7.54437538 1.13121338 8.89797974 1.13552856 C10.35746536 1.13249222 10.35746536 1.13249222 11.84643555 1.12939453 C13.38082527 1.13202301 13.38082527 1.13202301 14.94621277 1.13470459 C18.34306514 1.13912162 21.73986581 1.13618454 25.13671875 1.1328125 C27.49363719 1.13348584 29.85055556 1.13445612 32.20747375 1.13571167 C37.15647032 1.13718865 42.10544888 1.13503503 47.05444336 1.13037109 C53.39186135 1.1246894 59.72923684 1.1279429 66.06665325 1.13394356 C70.93858661 1.13756247 75.81050995 1.13640419 80.68244362 1.13381577 C83.0183799 1.13314937 85.35431709 1.13396488 87.6902523 1.13629532 C90.96238982 1.13884189 94.23445933 1.13495224 97.5065918 1.12939453 C98.46946106 1.13141876 99.43233032 1.13344299 100.42437744 1.13552856 C105.39155771 1.11994202 110.10338268 0.84689584 115 0 C115 0.66 115 1.32 115 2 C116.32 2.33 117.64 2.66 119 3 C119 3.66 119 4.32 119 5 C119.99 5.495 119.99 5.495 121 6 C122.71013373 9.88666756 121.60745324 13.95031172 121 18 C120.34 18 119.68 18 119 18 C119.02320313 17.38511719 119.04640625 16.77023438 119.0703125 16.13671875 C119.08835937 15.32847656 119.10640625 14.52023438 119.125 13.6875 C119.14820313 12.88699219 119.17140625 12.08648437 119.1953125 11.26171875 C119.15817322 8.71611424 119.15817322 8.71611424 117 6 C114.11759509 5.03919836 112.27029398 4.86465873 109.27339172 4.84178162 C108.30164001 4.8319928 107.32988831 4.82220398 106.32868958 4.81211853 C105.26414047 4.80636307 104.19959137 4.8006076 103.1027832 4.79467773 C101.98068451 4.78477814 100.85858582 4.77487854 99.70248413 4.76467896 C95.98527146 4.73303507 92.26804601 4.70829501 88.55078125 4.68359375 C85.9767371 4.66302673 83.40269634 4.64203032 80.82865906 4.62062073 C74.74077642 4.57102405 68.65287562 4.52576545 62.56494445 4.48259836 C55.63389954 4.43321177 48.70290188 4.37829892 41.77190268 4.32291877 C27.51464617 4.20912426 13.25734353 4.1022797 -1 4 C-0.67 2.68 -0.34 1.36 0 0 Z " fill="#2C1500" transform="translate(278,226)"/>
<path d="M0 0 C0.495 1.485 0.495 1.485 1 3 C0.34 3 -0.32 3 -1 3 C-1 3.66 -1 4.32 -1 5 C-2.875 7.125 -2.875 7.125 -5 9 C-5.66 9 -6.32 9 -7 9 C-7.33 9.99 -7.66 10.98 -8 12 C-8.99 12.33 -9.98 12.66 -11 13 C-11.556875 13.556875 -12.11375 14.11375 -12.6875 14.6875 C-15.33297499 17.33297499 -18.2096085 19.33234866 -21.29296875 21.4375 C-23.2945394 23.26960128 -23.46071347 24.40501729 -24 27 C-25.63183107 28.05589069 -27.30792999 29.0436126 -29 30 C-30.79422962 31.48917045 -32.52743144 33.03067103 -34.25390625 34.59765625 C-36.07563585 36.06074557 -37.91791541 36.95895771 -40 38 C-40.474375 38.639375 -40.94875 39.27875 -41.4375 39.9375 C-43.31096541 42.41047434 -45.35651772 43.41391063 -48 45 C-49.00642948 46.32848691 -50.00692179 47.66150329 -51 49 C-52.33333333 49.66666667 -53.66666667 50.33333333 -55 51 C-57.57560192 53.38243177 -59.80227872 55.72978092 -61.875 58.5625 C-64.03460443 61.03969332 -66.10982378 62.30226535 -68.98828125 63.83203125 C-76.47013979 68.14029009 -76.47013979 68.14029009 -81 75 C-84.15378602 77.19012918 -87.40924853 78.66629231 -91 80 C-82.74067935 71.64924776 -74.09680452 63.77013279 -64.9453125 56.40625 C-56.83158196 49.77752585 -48.96522911 42.83698902 -41.25 35.75 C-36.88779582 31.74916185 -32.36582601 28.00650146 -27.76171875 24.2890625 C-23.91578413 21.10134299 -20.24797931 17.73452159 -16.5703125 14.35546875 C-11.17822869 9.41409103 -5.64108344 4.65389384 0 0 Z " fill="#DCA657" transform="translate(274,138)"/>
<path d="M0 0 C3.42267374 1.89339398 4.70024354 2.98543967 5.8125 6.75 C6.04664022 10.80843051 4.99300012 12.82918345 3.0625 16.375 C2.49660156 17.43460938 1.93070312 18.49421875 1.34765625 19.5859375 C0.90292969 20.38257812 0.45820313 21.17921875 0 22 C-0.5859375 20.13671875 -0.5859375 20.13671875 -1 18 C-0.54625 17.278125 -0.0925 16.55625 0.375 15.8125 C2.64898356 11.87675923 2.66302791 8.51542606 3 4 C-0.96 3.67 -4.92 3.34 -9 3 C-9.66 4.65 -10.32 6.3 -11 8 C-11.66 8 -12.32 8 -13 8 C-13 8.66 -13 9.32 -13 10 C-14.98 10.33 -16.96 10.66 -19 11 C-19.33 11.99 -19.66 12.98 -20 14 C-21.5234375 15.28125 -21.5234375 15.28125 -23.375 16.5 C-25.87637025 18.16048408 -27.89319584 19.86775134 -30 22 C-31.81554538 23.5831337 -33.65069972 25.14393081 -35.5 26.6875 C-36.93859375 27.89986328 -36.93859375 27.89986328 -38.40625 29.13671875 C-41 31 -41 31 -44 31 C-36.70048445 24.10542108 -29.38929784 17.35047726 -21.546875 11.07421875 C-18.18713438 8.33798828 -14.97920716 5.44940399 -11.77734375 2.53125 C-8.21267126 -0.53985245 -4.53351434 -0.61662743 0 0 Z " fill="#DEA85B" transform="translate(337,91)"/>
<path d="M0 0 C0.99 0.33 1.98 0.66 3 1 C-3.90642694 7.48918652 -10.85917408 13.78755191 -18.25390625 19.72265625 C-21.26319336 22.21826704 -24.13933755 24.83770131 -27 27.5 C-31.64129223 31.81779461 -36.43559438 35.87419228 -41.375 39.8515625 C-45.35916865 43.11241482 -49.18553422 46.54343471 -53 50 C-53 47 -53 47 -52 44 C-50.35666496 42.96210419 -48.68756133 41.96432076 -47 41 C-45.97895449 40.02149805 -44.9793879 39.02019573 -44 38 C-42.824375 37.071875 -42.824375 37.071875 -41.625 36.125 C-36.62899647 32.14475462 -36.62899647 32.14475462 -33 27 C-30.4375 26.375 -30.4375 26.375 -28 26 C-28 25.34 -28 24.68 -28 24 C-27.01 24 -26.02 24 -25 24 C-25 23.01 -25 22.02 -25 21 C-23.33720673 19.9935725 -21.67016516 18.99414593 -20 18 C-18.67206394 15.93299345 -18.67206394 15.93299345 -18 14 C-16.68 14 -15.36 14 -14 14 C-13.67 12.35 -13.34 10.7 -13 9 C-12.071875 8.7525 -11.14375 8.505 -10.1875 8.25 C-6.74972473 6.90185284 -6.0396478 5.91378257 -4 3 C-3.01 3 -2.02 3 -1 3 C-0.67 2.01 -0.34 1.02 0 0 Z " fill="#E1A855" transform="translate(265,355)"/>
<path d="M0 0 C0.33 0 0.66 0 1 0 C1.34615998 5.65394631 0.43425238 9.03006806 -2 14 C-2.66 14 -3.32 14 -4 14 C-4.33 14.99 -4.66 15.98 -5 17 C-5.66 17 -6.32 17 -7 17 C-7.391875 18.258125 -7.78375 19.51625 -8.1875 20.8125 C-10.03884094 26.40212552 -12.48545526 31.68268207 -15 37 C-15.66 37 -16.32 37 -17 37 C-16.34 38.98 -15.68 40.96 -15 43 C-10.00359673 43.99928065 -6.68718491 44.12039317 -2 42 C-1.67 41.34 -1.34 40.68 -1 40 C-0.01 40 0.98 40 2 40 C2 39.34 2 38.68 2 38 C4.475 37.505 4.475 37.505 7 37 C5.35697047 38.68997323 3.68528688 40.35216394 2 42 C1.2575 42.7425 0.515 43.485 -0.25 44.25 C-4.05852172 46.67360473 -7.50404559 47.3257938 -12 47 C-15 45.5 -15 45.5 -17 43 C-18.49266115 37.24659716 -17.49989549 33.83241915 -14.6875 28.8125 C-13.95089669 27.42366794 -13.21526936 26.03431792 -12.48046875 24.64453125 C-11.88371338 23.53585693 -11.88371338 23.53585693 -11.27490234 22.40478516 C-8.92946322 17.98069948 -6.72624142 13.48488635 -4.5 9 C-3.63597969 7.27055193 -2.77144412 5.54136114 -1.90625 3.8125 C-1.35420898 2.70841797 -1.35420898 2.70841797 -0.79101562 1.58203125 C-0.52998047 1.05996094 -0.26894531 0.53789062 0 0 Z " fill="#E2AA5A" transform="translate(193,378)"/>
<path d="M0 0 C0.83887568 0.48638474 0.83887568 0.48638474 1.69469833 0.98259544 C4.28970005 2.12785405 6.05833007 2.26011903 8.88482666 2.2784729 C9.86636719 2.28963638 10.84790771 2.30079987 11.85919189 2.31230164 C12.92949646 2.31446182 13.99980103 2.31662201 15.10253906 2.31884766 C16.23453735 2.32889328 17.36653564 2.3389389 18.53283691 2.34928894 C22.27709441 2.38019695 26.02128016 2.39717748 29.765625 2.4140625 C32.36066305 2.43276799 34.95569498 2.45234093 37.55072021 2.4727478 C43.68460643 2.51888651 49.81848886 2.55627127 55.95245719 2.58942068 C62.93675479 2.62765355 69.92095938 2.67706063 76.90517855 2.72740483 C91.2700499 2.83070056 105.63498363 2.91957225 120 3 C116.535 10.425 116.535 10.425 113 18 C112.67 18 112.34 18 112 18 C112 16.35 112 14.7 112 13 C112.66 13 113.32 13 114 13 C114.185625 11.88625 114.185625 11.88625 114.375 10.75 C115 8 115 8 117 4 C60.57 4.495 60.57 4.495 3 5 C2.67 4.01 2.34 3.02 2 2 C1.01 1.67 0.02 1.34 -1 1 C-0.67 0.67 -0.34 0.34 0 0 Z " fill="#1A0300" transform="translate(121,283)"/>
<path d="M0 0 C0.99 0 1.98 0 3 0 C1.33251822 5.78559298 -1.37464677 10.92612585 -4.12109375 16.25390625 C-4.62165787 17.23238022 -5.12222198 18.21085419 -5.63795471 19.21897888 C-6.69422574 21.2816915 -7.75253283 23.3433626 -8.81274414 25.40405273 C-10.43252369 28.5528263 -12.0458899 31.70481979 -13.65820312 34.85742188 C-14.68712517 36.86477551 -15.71640987 38.8719433 -16.74609375 40.87890625 C-17.22743271 41.81859756 -17.70877167 42.75828888 -18.20469666 43.72645569 C-22.8497787 52.74638125 -22.8497787 52.74638125 -25 56 C-25.33 56 -25.66 56 -26 56 C-26 54.35 -26 52.7 -26 51 C-25.34 51 -24.68 51 -24 51 C-23.773125 49.845 -23.54625 48.69 -23.3125 47.5 C-22.31304178 43.45963697 -20.59390117 40.56840703 -18.29296875 37.140625 C-16.87093468 34.78632085 -15.91105512 32.44549337 -14.9375 29.875 C-13.40770987 25.83684953 -11.5203493 22.52848903 -9 19 C-8.30570621 17.6808418 -7.62469505 16.35350594 -7 15 C-6.34 15 -5.68 15 -5 15 C-4.87625 13.865625 -4.7525 12.73125 -4.625 11.5625 C-4.315625 9.7990625 -4.315625 9.7990625 -4 8 C-3.34 7.67 -2.68 7.34 -2 7 C-1.26924352 4.6859378 -0.59861742 2.35171131 0 0 Z " fill="#E0A854" transform="translate(333,113)"/>
<path d="M0 0 C0.99 0.33 1.98 0.66 3 1 C-0.71068393 5.99023011 -5.0588701 9.57522694 -9.90625 13.4453125 C-13.24203831 16.151908 -16.36824371 19.06217635 -19.5 22 C-23.63864723 25.85711079 -27.81023876 29.65235293 -32.125 33.3125 C-32.99382812 34.05113281 -33.86265625 34.78976562 -34.7578125 35.55078125 C-35.49773437 36.02902344 -36.23765625 36.50726563 -37 37 C-37.99 36.67 -38.98 36.34 -40 36 C-40 35.34 -40 34.68 -40 34 C-37.34771188 32.92474806 -34.71631546 31.90543849 -32 31 C-32 29.68 -32 28.36 -32 27 C-30.68 27 -29.36 27 -28 27 C-28 26.34 -28 25.68 -28 25 C-26.5390625 23.4921875 -26.5390625 23.4921875 -24.625 21.875 C-23.99851562 21.33617187 -23.37203125 20.79734375 -22.7265625 20.2421875 C-21 19 -21 19 -19 19 C-18.9071875 18.12021484 -18.9071875 18.12021484 -18.8125 17.22265625 C-17.6608363 14.07219161 -15.79831185 13.21426903 -13 11.4375 C-8.97256719 9.05618633 -8.97256719 9.05618633 -7 5 C-5.02 4.67 -3.04 4.34 -1 4 C-0.67 2.68 -0.34 1.36 0 0 Z " fill="#E3AB54" transform="translate(348,282)"/>
<path d="M0 0 C-7.12761237 6.0624366 -14.28593551 12.07674618 -21.54296875 17.984375 C-24.73966978 20.60678793 -27.87553122 23.29212706 -31 26 C-31.33 25.01 -31.66 24.02 -32 23 C-31.505 22.566875 -31.01 22.13375 -30.5 21.6875 C-28.66781808 20.00259517 -28.66781808 20.00259517 -29 17 C-27.57421875 15.71875 -27.57421875 15.71875 -25.6875 14.5 C-23.1707783 12.85384241 -21.06854072 11.1894708 -19 9 C-18.67 9.66 -18.34 10.32 -18 11 C-17.2575 10.2575 -16.515 9.515 -15.75 8.75 C-14.8425 7.8425 -13.935 6.935 -13 6 C-12.34 5.29875 -11.68 4.5975 -11 3.875 C-7.31036601 0.41596813 -4.97574297 -1.54964876 0 0 Z " fill="#1C0802" transform="translate(224,183)"/>
<path d="M0 0 C-0.57352893 3.87132028 -2.48704352 6.08172796 -5 9 C-4.34 9.33 -3.68 9.66 -3 10 C-2.46375 9.360625 -1.9275 8.72125 -1.375 8.0625 C1.44367193 5.61470596 3.33860732 5.33285388 7 5 C5.33333333 6.66666667 3.66666667 8.33333333 2 10 C1.21625 10.886875 0.4325 11.77375 -0.375 12.6875 C-3.60653997 15.53433283 -5.8404088 16.10283327 -10 17 C-11.14272084 13.57183748 -11.00003392 12.00010553 -9.875 8.5 C-5.32142857 0 -5.32142857 0 0 0 Z " fill="#FBAC38" transform="translate(204,400)"/>
<path d="M0 0 C0.66 0.33 1.32 0.66 2 1 C-3.7656724 12.62838486 -9.54391977 24.2499277 -15.5625 35.75 C-15.96710449 36.52835205 -16.37170898 37.3067041 -16.78857422 38.10864258 C-18.63853915 41.62012832 -20.46403852 44.92119692 -23 48 C-22.34496718 43.94180817 -21.05440879 40.46028718 -19.4375 36.6875 C-18.75494141 35.08455078 -18.75494141 35.08455078 -18.05859375 33.44921875 C-17.53458984 32.23685547 -17.53458984 32.23685547 -17 31 C-16.34 31 -15.68 31 -15 31 C-15.0928125 29.824375 -15.0928125 29.824375 -15.1875 28.625 C-15.125625 27.75875 -15.06375 26.8925 -15 26 C-14.01 25.34 -13.02 24.68 -12 24 C-10.76609844 21.36367029 -10.76609844 21.36367029 -9.8125 18.375 C-9.46832031 17.37210938 -9.12414062 16.36921875 -8.76953125 15.3359375 C-8.51558594 14.56507813 -8.26164062 13.79421875 -8 13 C-7.34 13 -6.68 13 -6 13 C-5.79503906 12.38511719 -5.59007812 11.77023438 -5.37890625 11.13671875 C-4.25260417 7.7578125 -3.12630208 4.37890625 -2 1 C-1.34 0.67 -0.68 0.34 0 0 Z " fill="#DDA956" transform="translate(302,176)"/>
<path d="M0 0 C0 0.99 0 1.98 0 3 C-2.3125 5 -2.3125 5 -5 7 C-5.556875 7.5775 -6.11375 8.155 -6.6875 8.75 C-8 10 -8 10 -10 10 C-10 10.99 -10 11.98 -10 13 C-11.62779266 14.06210585 -13.30318414 15.05205818 -15 16 C-16.6163649 17.29309192 -18.20060209 18.62737903 -19.75 20 C-20.52859375 20.680625 -21.3071875 21.36125 -22.109375 22.0625 C-24.22541051 23.94918365 -24.22541051 23.94918365 -25 27 C-26.99145391 28.01691264 -28.99187074 29.01642648 -31 30 C-31.66 30.99 -32.32 31.98 -33 33 C-33.66 33 -34.32 33 -35 33 C-35.33 33.99 -35.66 34.98 -36 36 C-37.32 35.67 -38.64 35.34 -40 35 C-35.29771549 30.00883795 -30.22914125 25.68232813 -24.890625 21.38671875 C-22.00762428 19.00629518 -19.24921167 16.53320218 -16.5 14 C-11.17642106 9.09892732 -5.64792023 4.52270595 0 0 Z " fill="#D7A259" transform="translate(182,218)"/>
<path d="M0 0 C1 3 1 3 0.5 6 C-1.53905445 10.0781089 -3.8258927 10.41671792 -8 12 C-8.70125 12.70125 -9.4025 13.4025 -10.125 14.125 C-12.36859973 16.36859973 -13.8979054 16.65532282 -17 17 C-17.33 17.99 -17.66 18.98 -18 20 C-18.99 20.33 -19.98 20.66 -21 21 C-21.66 21.99 -22.32 22.98 -23 24 C-23.66 24 -24.32 24 -25 24 C-25 24.66 -25 25.32 -25 26 C-26.65 26.33 -28.3 26.66 -30 27 C-22.2055815 19.12177055 -13.96086919 11.83639379 -5.3125 4.91015625 C-3.42324244 3.34960398 -1.68812889 1.77142472 0 0 Z " fill="#210A03" transform="translate(320,310)"/>
<path d="M0 0 C1.41687119 4.25061356 0.19320039 6.71851625 -1 11 C-1.66 11 -2.32 11 -3 11 C-2.87625 12.051875 -2.87625 12.051875 -2.75 13.125 C-3.08667557 16.99676908 -4.57396616 19.01944414 -7 22 C-7.99 22 -8.98 22 -10 22 C-10.25523437 22.82757813 -10.51046875 23.65515625 -10.7734375 24.5078125 C-12.15257503 28.43440151 -13.83605302 32.12257463 -15.625 35.875 C-15.94984375 36.56335938 -16.2746875 37.25171875 -16.609375 37.9609375 C-17.40323472 39.64205219 -18.20119558 41.32122921 -19 43 C-19.66 42.67 -20.32 42.34 -21 42 C-19.51187464 38.11746428 -17.77559053 34.42221855 -15.91796875 30.703125 C-15.62191238 30.11005554 -15.32585602 29.51698608 -15.02082825 28.90594482 C-14.39564656 27.65490376 -13.76946328 26.40436277 -13.14233398 25.15429688 C-12.19803133 23.27100343 -11.25797251 21.38563665 -10.31835938 19.5 C-7.02698547 12.91399115 -3.6611761 6.3892571 0 0 Z " fill="#DEA654" transform="translate(215,336)"/>
<path d="M0 0 C0.66 0.33 1.32 0.66 2 1 C1.67 1.61875 1.34 2.2375 1 2.875 C-0.14193235 4.91018344 -0.14193235 4.91018344 0 7 C-1.8984375 8.5078125 -1.8984375 8.5078125 -4.375 10.125 C-5.18710937 10.66382813 -5.99921875 11.20265625 -6.8359375 11.7578125 C-9 13 -9 13 -11 13 C-11.33 13.99 -11.66 14.98 -12 16 C-14.74852621 19.04566418 -17.17377257 21.4411666 -21 23 C-21 19 -21 19 -18.4375 16.23046875 C-17.30180385 15.20480834 -16.15530972 14.19101605 -15 13.1875 C-14.41001221 12.65995117 -13.82002441 12.13240234 -13.2121582 11.58886719 C-11.48418709 10.0481697 -9.74389358 8.52262647 -8 7 C-7.12730469 6.22785156 -6.25460937 5.45570313 -5.35546875 4.66015625 C-3.5796028 3.09547435 -1.79624551 1.5411895 0 0 Z " fill="#1E0903" transform="translate(344,289)"/>
<path d="M0 0 C3.71599191 -0.20086443 4.77208445 -0.1519437 8 2 C8.33 1.34 8.66 0.68 9 0 C10.32 0.33 11.64 0.66 13 1 C10.75431285 2.96347513 8.50376879 4.92083936 6.25 6.875 C5.29867188 7.70837891 5.29867188 7.70837891 4.328125 8.55859375 C3.709375 9.09355469 3.090625 9.62851562 2.453125 10.1796875 C1.88754883 10.67194824 1.32197266 11.16420898 0.73925781 11.67138672 C-1.08610524 13.06577551 -2.9185661 14.03903147 -5 15 C-5 14.01 -5 13.02 -5 12 C-4.34 11.67 -3.68 11.34 -3 11 C-2.67 10.01 -2.34 9.02 -2 8 C-1.01 8 -0.02 8 1 8 C1 7.34 1 6.68 1 6 C1.66 5.34 2.32 4.68 3 4 C2.505 3.525625 2.01 3.05125 1.5 2.5625 C0 1 0 1 0 0 Z " fill="#E7A84F" transform="translate(296,320)"/>
<path d="M0 0 C3.09350272 3.74970026 3.63323903 7.86160075 3.49609375 12.61328125 C2.57121808 17.06287994 -0.06986191 20.59921796 -3 24 C-3.66 24.33 -4.32 24.66 -5 25 C-3.92439701 21.41465669 -2.62324584 18.2580894 -0.8125 15 C0.6418655 12.15118668 1 11.0011467 1 7.6875 C-0.21219867 4.42971609 -0.8378631 3.4594478 -4 2 C-8.37550096 1.4339701 -12.22681778 1.48454519 -16 4 C-15.67 3.01 -15.34 2.02 -15 1 C-10.15254686 -1.42372657 -5.12887294 -1.68951109 0 0 Z " fill="#2A0F03" transform="translate(341,90)"/>
<path d="M0 0 C0.33 1.32 0.66 2.64 1 4 C0.34 4 -0.32 4 -1 4 C-1 5.65 -1 7.3 -1 9 C-1.99 9.495 -1.99 9.495 -3 10 C-4.93521245 14.83803112 -5.93766066 19.91433296 -7 25 C-8.32 25.33 -9.64 25.66 -11 26 C-12 23 -12 23 -11.11962891 20.65576172 C-10.65991699 19.75615723 -10.20020508 18.85655273 -9.7265625 17.9296875 C-9.2315625 16.95128906 -8.7365625 15.97289062 -8.2265625 14.96484375 C-7.69804687 13.94519531 -7.16953125 12.92554688 -6.625 11.875 C-6.10421875 10.84761719 -5.5834375 9.82023437 -5.046875 8.76171875 C-1.18183541 1.18183541 -1.18183541 1.18183541 0 0 Z " fill="#ECAB47" transform="translate(228,311)"/>
<path d="M0 0 C2.125 0.375 2.125 0.375 4 1 C1.65039488 3.06774314 -0.70550647 5.1281852 -3.0625 7.1875 C-3.71927734 7.76564453 -4.37605469 8.34378906 -5.05273438 8.93945312 C-9.21127325 12.56537126 -13.45938427 15.86467237 -18 19 C-18 17.35 -18 15.7 -18 14 C-16.35 13.34 -14.7 12.68 -13 12 C-13 11.34 -13 10.68 -13 10 C-11.02 9.34 -9.04 8.68 -7 8 C-7 7.34 -7 6.68 -7 6 C-6.01 6 -5.02 6 -4 6 C-3.566875 5.071875 -3.566875 5.071875 -3.125 4.125 C-2 2 -2 2 0 0 Z " fill="#E4A955" transform="translate(380,255)"/>
<path d="M0 0 C0.88935377 3.303314 1.46274105 6.62294375 2 10 C6.99640327 10.99928065 10.31281509 11.12039317 15 9 C15.33 8.34 15.66 7.68 16 7 C16.99 7 17.98 7 19 7 C19 6.34 19 5.68 19 5 C20.65 4.67 22.3 4.34 24 4 C22.35697047 5.68997323 20.68528688 7.35216394 19 9 C18.2575 9.7425 17.515 10.485 16.75 11.25 C12.94147828 13.67360473 9.49595441 14.3257938 5 14 C2 12.5 2 12.5 0 10 C-0.96101954 6.08727759 -1.27782434 3.83347302 0 0 Z " fill="#D4A05A" transform="translate(176,411)"/>
<path d="M0 0 C0.33 0.66 0.66 1.32 1 2 C-1 5 -1 5 -4 6 C-5.26654425 7.49846741 -5.26654425 7.49846741 -6.375 9.3125 C-10.36426908 15.10643843 -14.27381745 17.41736881 -21 19 C-18.20343896 15.27125194 -15.26866715 12.39860356 -11.625 9.5 C-10.18060547 8.34177734 -10.18060547 8.34177734 -8.70703125 7.16015625 C-7.81371094 6.44730469 -6.92039063 5.73445313 -6 5 C-3.99134113 3.34333469 -1.99579499 1.67215256 0 0 Z " fill="#180804" transform="translate(247,374)"/>
<path d="M0 0 C0.33 0.66 0.66 1.32 1 2 C-2 5 -5 8 -8 11 C-8.495 11.53625 -8.99 12.0725 -9.5 12.625 C-11 14 -11 14 -13.375 15.3125 C-16.70728217 17.4546814 -18.57348245 19.88019172 -21 23 C-22.32 22.67 -23.64 22.34 -25 22 C-18.23595668 15.68453198 -11.40370322 9.56702592 -4.1796875 3.77734375 C-1.96611041 2.03354816 -1.96611041 2.03354816 0 0 Z " fill="#280D03" transform="translate(289,337)"/>
<path d="M0 0 C1.23593906 3.70781718 0.56984348 4.52981968 -1 8 C-2.09430295 10.66736345 -3.05764719 13.21285118 -3.8125 16 C-5.22654955 19.57233572 -7.16152727 21.46031388 -10 24 C-10.33 23.34 -10.66 22.68 -11 22 C-9.82366676 19.35027967 -8.59182019 16.81416324 -7.25 14.25 C-6.8890625 13.54617188 -6.528125 12.84234375 -6.15625 12.1171875 C-5.44505797 10.73087839 -4.73092625 9.34607291 -4.01367188 7.96289062 C-2.64964652 5.32156984 -1.32272505 2.66219346 0 0 Z " fill="#DFA64F" transform="translate(240,287)"/>
<path d="M0 0 C0 4.28535967 -2.2516278 5.84942699 -5 9 C-5.33 9.66 -5.66 10.32 -6 11 C-8.62581138 12.57548683 -9.87099787 13 -13 13 C-13 13.66 -13 14.32 -13 15 C-14.98 15.66 -16.96 16.32 -19 17 C-15.36034072 13.31324716 -11.6302352 9.75155689 -7.8125 6.25 C-7.27947266 5.75628906 -6.74644531 5.26257813 -6.19726562 4.75390625 C-2.23954417 1.11977209 -2.23954417 1.11977209 0 0 Z " fill="#220A02" transform="translate(389,251)"/>
<path d="M0 0 C0.33 0 0.66 0 1 0 C1.042721 1.66611905 1.04063832 3.33382885 1 5 C0.67 5.33 0.34 5.66 0 6 C-0.0825 7.2375 -0.165 8.475 -0.25 9.75 C-0.75785786 14.25623085 -2.45800005 16.11697679 -6 19 C-7.31175986 20.02813611 -8.6369893 21.04084432 -10 22 C-8.4719611 16.90117545 -6.28963144 12.34334341 -3.875 7.625 C-3.50246094 6.88894531 -3.12992187 6.15289062 -2.74609375 5.39453125 C-1.8343878 3.59449642 -0.91770068 1.79698598 0 0 Z " fill="#200B03" transform="translate(319,146)"/>
<path d="M0 0 C0.33 0 0.66 0 1 0 C1.6875 2.75 1.6875 2.75 2 6 C0.625 8.0625 0.625 8.0625 -1 10 C-1.71433121 12.64934822 -1.71433121 12.64934822 -2 15 C-3.98 15.66 -5.96 16.32 -8 17 C-6.3341708 10.83643195 -3.12194714 5.51740344 0 0 Z " fill="#210D06" transform="translate(328,129)"/>
<path d="M0 0 C0.99 0.33 1.98 0.66 3 1 C0.96315122 2.92201161 -1.0791668 4.8375907 -3.125 6.75 C-3.97964844 7.55824219 -3.97964844 7.55824219 -4.8515625 8.3828125 C-8.377366 11.66822031 -11.91409742 14.4416537 -16 17 C-15.52758009 12.74822077 -13.15035929 10.70030797 -10 8 C-9.01 8 -8.02 8 -7 8 C-6.6596875 7.13375 -6.6596875 7.13375 -6.3125 6.25 C-4.63315609 3.37112473 -2.77209171 1.82552381 0 0 Z " fill="#DFA75A" transform="translate(288,335)"/>
<path d="M0 0 C0.33 0.66 0.66 1.32 1 2 C0.071875 3.36125 0.071875 3.36125 -0.875 4.75 C-2.44389611 7.14948817 -3.80443821 9.40961612 -5 12 C-5.99 11.67 -6.98 11.34 -8 11 C-11.15020361 11.88319294 -11.15020361 11.88319294 -14 13 C-9.55618306 8.41283413 -4.79771501 4.21237287 0 0 Z " fill="#140604" transform="translate(369,268)"/>
<path d="M0 0 C0.66 0.66 1.32 1.32 2 2 C0.62968895 7.65253308 -3.67689413 10.5113541 -8 14 C-8.33 13.01 -8.66 12.02 -9 11 C-8.505 10.566875 -8.01 10.13375 -7.5 9.6875 C-5.66781808 8.00259517 -5.66781808 8.00259517 -6 5 C-4.17806158 3.0750353 -2.10764717 1.62464469 0 0 Z " fill="#050209" transform="translate(201,195)"/>
<path d="M0 0 C0.66 0 1.32 0 2 0 C2 0.66 2 1.32 2 2 C0.34614767 3.34919532 -1.321702 4.68133728 -3 6 C-3.99 7.485 -3.99 7.485 -5 9 C-6.32520503 9.68268138 -7.65812182 10.3507041 -9 11 C-9.33 11.66 -9.66 12.32 -10 13 C-11.25470175 14.08590779 -12.55276197 15.12242391 -13.875 16.125 C-14.57367188 16.66382813 -15.27234375 17.20265625 -15.9921875 17.7578125 C-18 19 -18 19 -21 19 C-15.23517262 13.73323675 -9.46499948 8.48324279 -3.55859375 3.375 C-2.33264177 2.2934584 -1.156004 1.156004 0 0 Z " fill="#311504" transform="translate(224,393)"/>
<path d="M0 0 C0.33 0 0.66 0 1 0 C0.40859498 4.82980764 -0.29677713 9.42819125 -2 14 C-4.125 15.4375 -4.125 15.4375 -6 16 C-6 16.66 -6 17.32 -6 18 C-6.66 18 -7.32 18 -8 18 C-6.65150163 13.64029169 -4.95092154 9.68658562 -2.875 5.625 C-2.33617187 4.56539062 -1.79734375 3.50578125 -1.2421875 2.4140625 C-0.83226562 1.61742187 -0.42234375 0.82078125 0 0 Z " fill="#2F1305" transform="translate(287,208)"/>
<path d="M0 0 C0 3 0 3 -1.42578125 4.82421875 C-2.04839844 5.43910156 -2.67101562 6.05398438 -3.3125 6.6875 C-3.92738281 7.31011719 -4.54226562 7.93273437 -5.17578125 8.57421875 C-7 10 -7 10 -10 10 C-10 10.66 -10 11.32 -10 12 C-11.65 12.33 -13.3 12.66 -15 13 C-10.61251614 7.3750207 -6.08867157 3.69379408 0 0 Z " fill="#1A0401" transform="translate(207,410)"/>
<path d="M0 0 C-2.28953844 1.98167622 -4.58149798 3.96042047 -6.875 5.9375 C-7.85146484 6.78344727 -7.85146484 6.78344727 -8.84765625 7.64648438 C-9.47285156 8.18466797 -10.09804688 8.72285156 -10.7421875 9.27734375 C-11.3182373 9.77484131 -11.89428711 10.27233887 -12.48779297 10.78491211 C-14 12 -14 12 -16 13 C-14.99725684 6.996735 -9.95325885 3.42055189 -5.25 0 C-3 -1 -3 -1 0 0 Z " fill="#2B1206" transform="translate(294,122)"/>
<path d="M0 0 C0.99 0 1.98 0 3 0 C1.55676531 4.73789165 -0.37226733 8.98858151 -2.625 13.375 C-2.94984375 14.01566406 -3.2746875 14.65632813 -3.609375 15.31640625 C-4.40257407 16.87947501 -5.20077031 18.44000622 -6 20 C-6.66 19.01 -7.32 18.02 -8 17 C-7.67386719 16.443125 -7.34773437 15.88625 -7.01171875 15.3125 C-4.14954957 10.31425765 -1.88056396 5.44373777 0 0 Z " fill="#290F04" transform="translate(182,394)"/>
<path d="M0 0 C0.8353125 0.37125 0.8353125 0.37125 1.6875 0.75 C0.07694319 2.52161249 -1.2049757 3.69786701 -3.375 4.75 C-5.64492155 5.72325058 -5.64492155 5.72325058 -7.3125 8.75 C-7.9725 8.75 -8.6325 8.75 -9.3125 8.75 C-9.6425 9.74 -9.9725 10.73 -10.3125 11.75 C-11.6325 11.42 -12.9525 11.09 -14.3125 10.75 C-3.46875 -0.375 -3.46875 -0.375 0 0 Z " fill="#E1A65A" transform="translate(156.3125,242.25)"/>
<path d="M0 0 C2.44445134 2.17647673 2.96404899 2.81664983 3.625 6.1875 C2.64512949 12.16471014 -1.09849745 15.75306635 -5.80078125 19.39453125 C-7.16586609 20.31653366 -8.57836995 21.16782631 -10 22 C-9.67 20.68 -9.34 19.36 -9 18 C-8.01 18 -7.02 18 -6 18 C-5.67 17.01 -5.34 16.02 -5 15 C-4.154375 14.505 -3.30875 14.01 -2.4375 13.5 C0.5488537 10.43707313 0.3338194 9.40728356 0.3125 5.25 C0.23227209 3.49873926 0.13560864 1.74784467 0 0 Z " fill="#D8A464" transform="translate(395,232)"/>
<path d="M0 0 C0.66 0.66 1.32 1.32 2 2 C-0.97 4.64 -3.94 7.28 -7 10 C-7.66 9.67 -8.32 9.34 -9 9 C-8.6875 6.625 -8.6875 6.625 -8 4 C-5.33440687 2.22293791 -2.9719385 1.12451727 0 0 Z " fill="#1E0A06" transform="translate(137,254)"/>
<path d="M0 0 C0.33 0.66 0.66 1.32 1 2 C0.19555664 4.06298828 0.19555664 4.06298828 -1.08984375 6.5703125 C-1.54423828 7.46621094 -1.99863281 8.36210937 -2.46679688 9.28515625 C-2.95212891 10.22230469 -3.43746094 11.15945313 -3.9375 12.125 C-4.41896484 13.06988281 -4.90042969 14.01476562 -5.39648438 14.98828125 C-6.59061095 17.32924226 -7.79202599 19.66616264 -9 22 C-9.33 22 -9.66 22 -10 22 C-10 20.35 -10 18.7 -10 17 C-9.34 17 -8.68 17 -8 17 C-8 15.35 -8 13.7 -8 12 C-7.34 12 -6.68 12 -6 12 C-5.34 9.69 -4.68 7.38 -4 5 C-3.34 5 -2.68 5 -2 5 C-1.855625 4.360625 -1.71125 3.72125 -1.5625 3.0625 C-1 1 -1 1 0 0 Z " fill="#2E1005" transform="translate(206,351)"/>
<path d="M0 0 C0.99 0.33 1.98 0.66 3 1 C2.27554687 1.59167969 1.55109375 2.18335937 0.8046875 2.79296875 C-4.14804091 6.84099877 -9.09687934 10.89197999 -14 15 C-13.67 13.35 -13.34 11.7 -13 10 C-12.01 10 -11.02 10 -10 10 C-9.7525 9.38125 -9.505 8.7625 -9.25 8.125 C-7.74997691 5.57496075 -6.6302751 5.23777652 -4 4 C-2.62913085 2.70529025 -1.28659163 1.37849103 0 0 Z " fill="#2B0F03" transform="translate(322,94)"/>
<path d="M0 0 C0.99 0.33 1.98 0.66 3 1 C2.50628906 1.36351562 2.01257813 1.72703125 1.50390625 2.1015625 C-2.70164911 5.36854786 -2.70164911 5.36854786 -5 10.0625 C-5 12.87498003 -4.71859692 15.28530053 -4 18 C-6.41720753 16.10827237 -6.98963969 15.04144125 -7.75 12 C-8 9 -8 9 -7 6 C-6.34 6 -5.68 6 -5 6 C-4.67 5.01 -4.34 4.02 -4 3 C-3.34 3 -2.68 3 -2 3 C-2 2.34 -2 1.68 -2 1 C-1.34 0.67 -0.68 0.34 0 0 Z " fill="#1B0700" transform="translate(125,265)"/>
<path d="M0 0 C-3.63 3.3 -7.26 6.6 -11 10 C-11.33 8.68 -11.66 7.36 -12 6 C-8.88358862 2.04455479 -5.06509576 -1.68836525 0 0 Z " fill="#1E0904" transform="translate(243,166)"/>
<path d="M0 0 C0.33 1.32 0.66 2.64 1 4 C0.38125 4.268125 -0.2375 4.53625 -0.875 4.8125 C-3.2995233 5.95556848 -3.2995233 5.95556848 -5 9 C-6.33333333 9.66666667 -7.66666667 10.33333333 -9 11 C-10.37086915 12.29470975 -11.71340837 13.62150897 -13 15 C-13.99 14.67 -14.98 14.34 -16 14 C-15.26394531 13.40832031 -14.52789062 12.81664062 -13.76953125 12.20703125 C-12.79371094 11.41683594 -11.81789063 10.62664062 -10.8125 9.8125 C-9.36810547 8.64654297 -9.36810547 8.64654297 -7.89453125 7.45703125 C-5.09649579 5.08191073 -2.5544533 2.62917223 0 0 Z " fill="#DCA556" transform="translate(291,123)"/>
<path d="M0 0 C0.66 0.33 1.32 0.66 2 1 C-0.64 5.95 -3.28 10.9 -6 16 C-6.66 15.01 -7.32 14.02 -8 13 C-7.360625 12.13375 -6.72125 11.2675 -6.0625 10.375 C-4.02451704 7.0401188 -3.36566907 4.83952522 -3 1 C-2.01 0.67 -1.02 0.34 0 0 Z " fill="#260F05" transform="translate(214,335)"/>
<path d="M0 0 C0.68359375 1.640625 0.68359375 1.640625 1 4 C-0.21484375 6.796875 -0.21484375 6.796875 -1.9375 9.75 C-2.50339844 10.73484375 -3.06929688 11.7196875 -3.65234375 12.734375 C-4.09707031 13.48203125 -4.54179687 14.2296875 -5 15 C-5.66 15 -6.32 15 -7 15 C-5.22402863 9.67208588 -3.01681574 4.74071045 0 0 Z " fill="#EBAF54" transform="translate(324,132)"/>
<path d="M0 0 C0.99 0.33 1.98 0.66 3 1 C2.59683075 7.31631828 0.28767869 11.64993984 -3 17 C-3.5859375 15.140625 -3.5859375 15.140625 -4 13 C-3.319375 11.88625 -3.319375 11.88625 -2.625 10.75 C-0.46731427 7.09853184 -0.35643847 4.205974 0 0 Z " fill="#D69F56" transform="translate(340,96)"/>
<path d="M0 0 C0.33 0 0.66 0 1 0 C1.34615998 5.65394631 0.43425238 9.03006806 -2 14 C-2.66 14 -3.32 14 -4 14 C-4.33 14.99 -4.66 15.98 -5 17 C-5.33 16.34 -5.66 15.68 -6 15 C-5.67 14.34 -5.34 13.68 -5 13 C-4.34 13 -3.68 13 -3 13 C-2.95101562 12.39671875 -2.90203125 11.7934375 -2.8515625 11.171875 C-2.77679688 10.37265625 -2.70203125 9.5734375 -2.625 8.75 C-2.52058594 7.56664062 -2.52058594 7.56664062 -2.4140625 6.359375 C-1.98492887 3.914123 -1.21399362 2.15163097 0 0 Z " fill="#EAA749" transform="translate(193,378)"/>
<path d="M0 0 C0.33 1.32 0.66 2.64 1 4 C0.34 4 -0.32 4 -1 4 C-1 5.65 -1 7.3 -1 9 C-1.99 9.495 -1.99 9.495 -3 10 C-3.72693904 11.97888961 -4.39816251 13.97954558 -5 16 C-5.99 15.67 -6.98 15.34 -8 15 C-5.36 10.05 -2.72 5.1 0 0 Z " fill="#D2A054" transform="translate(228,311)"/>
<path d="M0 0 C0 0.66 0 1.32 0 2 C-0.66 2.66 -1.32 3.32 -2 4 C-2.69748583 5.31747324 -3.36959957 6.64914193 -4 8 C-4 7.34 -4 6.68 -4 6 C-4.9075 6.61875 -5.815 7.2375 -6.75 7.875 C-9.14948817 9.44389611 -11.40961612 10.80443821 -14 12 C-4.57142857 0 -4.57142857 0 0 0 Z " fill="#DDA657" transform="translate(142,254)"/>
<path d="M0 0 C0 0.99 0 1.98 0 3 C-1.63790712 4.04644066 -3.31008021 5.0398183 -5 6 C-6.36984198 7.29579647 -7.7151049 8.61992749 -9 10 C-9.66 9.67 -10.32 9.34 -11 9 C-10.04663979 7.68388323 -9.08714226 6.37221039 -8.125 5.0625 C-7.59132812 4.33160156 -7.05765625 3.60070312 -6.5078125 2.84765625 C-4.34025987 0.19156196 -3.46297603 0 0 0 Z " fill="#E6AA4F" transform="translate(250,162)"/>
<path d="M0 0 C-3.3 2.97 -6.6 5.94 -10 9 C-10.33 8.01 -10.66 7.02 -11 6 C-5.38709677 -1.79569892 -5.38709677 -1.79569892 0 0 Z " fill="#DEA757" transform="translate(211,406)"/>
<path d="M0 0 C0.33 0 0.66 0 1 0 C1.8125 2.6875 1.8125 2.6875 2 6 C-0.15385669 8.61955544 -1.95946594 10.47973297 -5 12 C-3.68938409 7.76570244 -2.05643741 3.92592596 0 0 Z " fill="#200A04" transform="translate(299,185)"/>
<path d="M0 0 C0.66 0.33 1.32 0.66 2 1 C-0.31 5.62 -2.62 10.24 -5 15 C-5.33 15 -5.66 15 -6 15 C-6 13.35 -6 11.7 -6 10 C-5.34 10 -4.68 10 -4 10 C-3.896875 8.72125 -3.79375 7.4425 -3.6875 6.125 C-3.51171875 3.9453125 -3.51171875 3.9453125 -3 2 C-2.01 1.34 -1.02 0.68 0 0 Z " fill="#2A0E03" transform="translate(222,319)"/>
<path d="M0 0 C0.58265625 0.22171875 1.1653125 0.4434375 1.765625 0.671875 C0.31274839 2.01115221 -1.14684759 3.34314347 -2.609375 4.671875 C-3.42148437 5.414375 -4.23359375 6.156875 -5.0703125 6.921875 C-7.234375 8.671875 -7.234375 8.671875 -9.234375 8.671875 C-9.234375 5.671875 -9.234375 5.671875 -7.84375 4.03125 C-7.23015625 3.50015625 -6.6165625 2.9690625 -5.984375 2.421875 C-5.07945312 1.60976563 -5.07945312 1.60976563 -4.15625 0.78125 C-2.234375 -0.328125 -2.234375 -0.328125 0 0 Z " fill="#DBA258" transform="translate(329.234375,301.328125)"/>
<path d="M0 0 C0.66 0.33 1.32 0.66 2 1 C-5.46432319 10.05613851 -5.46432319 10.05613851 -10 12 C-10.66 11.67 -11.32 11.34 -12 11 C-8.04 7.37 -4.08 3.74 0 0 Z " fill="#321304" transform="translate(238,381)"/>
<path d="M0 0 C0.66 0 1.32 0 2 0 C0.8905928 3.48670834 -0.26337666 6.77484237 -2 10 C-2.66 10 -3.32 10 -4 10 C-4 7.69 -4 5.38 -4 3 C-3.01 2.67 -2.02 2.34 -1 2 C-0.67 1.34 -0.34 0.68 0 0 Z " fill="#260D07" transform="translate(231,301)"/>
<path d="M0 0 C0.99 0.33 1.98 0.66 3 1 C1.35 4.63 -0.3 8.26 -2 12 C-2.33 12 -2.66 12 -3 12 C-2.14285714 3.42857143 -2.14285714 3.42857143 0 0 Z " fill="#D9A250" transform="translate(294,189)"/>
<path d="M0 0 C0.33 0.99 0.66 1.98 1 3 C-1.64 5.31 -4.28 7.62 -7 10 C-7 7 -7 7 -6 4 C-3.5 2.375 -3.5 2.375 -1 1 C-0.67 0.67 -0.34 0.34 0 0 Z " fill="#D9A756" transform="translate(219,395)"/>
<path d="M0 0 C1.32 0.33 2.64 0.66 4 1 C1.03 3.64 -1.94 6.28 -5 9 C-5.33 8.01 -5.66 7.02 -6 6 C-5.34 6 -4.68 6 -4 6 C-3.71125 5.38125 -3.4225 4.7625 -3.125 4.125 C-2 2 -2 2 0 0 Z " fill="#D7A257" transform="translate(380,255)"/>
<path d="M0 0 C0 0.66 0 1.32 0 2 C-6.4 5.07692308 -6.4 5.07692308 -9.4375 4.6875 C-9.953125 4.460625 -10.46875 4.23375 -11 4 C-11 3.34 -11 2.68 -11 2 C-9.5422647 1.664061 -8.08378894 1.33133376 -6.625 1 C-5.40683594 0.7215625 -5.40683594 0.7215625 -4.1640625 0.4375 C-2 0 -2 0 0 0 Z " fill="#1C0801" transform="translate(192,423)"/>
<path d="M0 0 C1.25541557 3.76624671 0.37061958 5.37188934 -1 9 C-1.99 8.01 -2.98 7.02 -4 6 C-1.125 1.125 -1.125 1.125 0 0 Z M-4 8 C-3.67 8.66 -3.34 9.32 -3 10 C-3.99 9.67 -4.98 9.34 -6 9 C-5.34 8.67 -4.68 8.34 -4 8 Z " fill="#170807" transform="translate(320,310)"/>
<path d="M0 0 C0.33 0.99 0.66 1.98 1 3 C-0.75 5.0625 -0.75 5.0625 -3 7 C-4.32 6.67 -5.64 6.34 -7 6 C-4.69 4.02 -2.38 2.04 0 0 Z " fill="#210A02" transform="translate(255,367)"/>
<path d="M0 0 C0.99 0.33 1.98 0.66 3 1 C1.69013727 2.16962686 0.3770374 3.33562944 -0.9375 4.5 C-1.66839844 5.1496875 -2.39929688 5.799375 -3.15234375 6.46875 C-5 8 -5 8 -6 8 C-6 6.35 -6 4.7 -6 3 C-4.68 3 -3.36 3 -2 3 C-2 2.34 -2 1.68 -2 1 C-1.34 0.67 -0.68 0.34 0 0 Z " fill="#2A0F05" transform="translate(164,231)"/>
<path d="M0 0 C-0.33 1.65 -0.66 3.3 -1 5 C-2.65 5.33 -4.3 5.66 -6 6 C-6 5.01 -6 4.02 -6 3 C-5.34 3 -4.68 3 -4 3 C-4 2.34 -4 1.68 -4 1 C-2 0 -2 0 0 0 Z " fill="#F8AD26" transform="translate(328,98)"/>
<path d="M0 0 C1.67542976 0.28604898 3.34385343 0.61781233 5 1 C4.01 1.495 4.01 1.495 3 2 C3 2.66 3 3.32 3 4 C1.02 4.33 -0.96 4.66 -3 5 C-1.125 1.125 -1.125 1.125 0 0 Z " fill="#EAAC51" transform="translate(321,97)"/>
<path d="M0 0 C0.99 0.33 1.98 0.66 3 1 C2.67 1.99 2.34 2.98 2 4 C-0.4375 5.125 -0.4375 5.125 -3 6 C-3.99 6.495 -3.99 6.495 -5 7 C-4.6189482 4.23737447 -4.16402868 3.15856106 -2.125 1.1875 C-1.42375 0.795625 -0.7225 0.40375 0 0 Z " fill="#0A0007" transform="translate(215,404)"/>
<path d="M0 0 C0.88336837 2.4667645 1.1312406 3.63859372 0.22265625 6.140625 C-0.16019531 6.83671875 -0.54304687 7.5328125 -0.9375 8.25 C-1.31777344 8.95640625 -1.69804687 9.6628125 -2.08984375 10.390625 C-2.39019531 10.92171875 -2.69054687 11.4528125 -3 12 C-3.88336837 9.5332355 -4.1312406 8.36140628 -3.22265625 5.859375 C-2.83980469 5.16328125 -2.45695313 4.4671875 -2.0625 3.75 C-1.68222656 3.04359375 -1.30195313 2.3371875 -0.91015625 1.609375 C-0.60980469 1.07828125 -0.30945313 0.5471875 0 0 Z " fill="#1A0500" transform="translate(195,370)"/>
<path d="M0 0 C0.66 0 1.32 0 2 0 C0.68938409 4.23429756 -0.94356259 8.07407404 -3 12 C-3.33 12 -3.66 12 -4 12 C-4 10.35 -4 8.7 -4 7 C-3.34 7 -2.68 7 -2 7 C-1.855625 6.21625 -1.71125 5.4325 -1.5625 4.625 C-1 2 -1 2 0 0 Z " fill="#2A0F03" transform="translate(237,289)"/>
<path d="M0 0 C0.99 0.33 1.98 0.66 3 1 C1.54712339 2.33927721 0.08752741 3.67126847 -1.375 5 C-2.18710937 5.7425 -2.99921875 6.485 -3.8359375 7.25 C-6 9 -6 9 -8 9 C-7.67 8.01 -7.34 7.02 -7 6 C-6.34 6 -5.68 6 -5 6 C-5 5.34 -5 4.68 -5 4 C-3.35 3.34 -1.7 2.68 0 2 C0 1.34 0 0.68 0 0 Z " fill="#D6A15C" transform="translate(359,274)"/>
<path d="M0 0 C0 3.99191204 -1.25498212 5.18079244 -4 8 C-6.75 8.8125 -6.75 8.8125 -9 9 C-6 6 -3 3 0 0 Z " fill="#2C1105" transform="translate(364,272)"/>
<path d="M0 0 C0.66 0 1.32 0 2 0 C1.1875 2.4375 1.1875 2.4375 0 5 C-0.99 5.33 -1.98 5.66 -3 6 C-3 6.66 -3 7.32 -3 8 C-3.66 8 -4.32 8 -5 8 C-4.34 6.02 -3.68 4.04 -3 2 C-2.01 2 -1.02 2 0 2 C0 1.34 0 0.68 0 0 Z " fill="#1B0805" transform="translate(284,218)"/>
<path d="M0 0 C0.75 1.5625 0.75 1.5625 1 4 C-0.13084437 6.50286409 -1.52139516 8.67007722 -3 11 C-3.66 11 -4.32 11 -5 11 C-3.77472971 6.94718288 -2.30119506 3.55639236 0 0 Z " fill="#2E1205" transform="translate(293,197)"/>
<path d="M0 0 C0.33 0.99 0.66 1.98 1 3 C-0.09283577 4.03295436 -1.19970579 5.05107835 -2.3125 6.0625 C-2.92738281 6.63097656 -3.54226562 7.19945312 -4.17578125 7.78515625 C-4.77777344 8.18605469 -5.37976563 8.58695313 -6 9 C-6.99 8.67 -7.98 8.34 -9 8 C-8.071875 7.4225 -7.14375 6.845 -6.1875 6.25 C-3.40184158 4.28365288 -1.81261304 2.81962028 0 0 Z " fill="#F4AC42" transform="translate(235,174)"/>
<path d="M0 0 C0.99 0.66 1.98 1.32 3 2 C0.36 3.98 -2.28 5.96 -5 8 C-3.95206337 3.80825346 -3.08236365 2.78407039 0 0 Z " fill="#2E1104" transform="translate(275,134)"/>
<path d="M0 0 C0.33 0 0.66 0 1 0 C0.125 7.75 0.125 7.75 -1 10 C-1.99 10 -2.98 10 -4 10 C-2.8905928 6.51329166 -1.73662334 3.22515763 0 0 Z " fill="#270E04" transform="translate(333,119)"/>
<path d="M0 0 C0.66 0.66 1.32 1.32 2 2 C0.99983813 5.0004856 -0.3372974 7.32521756 -2 10 C-2.66 9.67 -3.32 9.34 -4 9 C-2.68 6.03 -1.36 3.06 0 0 Z " fill="#F5AF3F" transform="translate(186,395)"/>
<path d="M0 0 C-3.96 3.465 -3.96 3.465 -8 7 C-8.99 6.34 -9.98 5.68 -11 5 C-10.01 5 -9.02 5 -8 5 C-8 4.01 -8 3.02 -8 2 C-3.71900826 -1.23966942 -3.71900826 -1.23966942 0 0 Z " fill="#D4A255" transform="translate(248,374)"/>
<path d="M0 0 C0.66 0.33 1.32 0.66 2 1 C-1.96 4.465 -1.96 4.465 -6 8 C-6.66 7.34 -7.32 6.68 -8 6 C-5.36 4.02 -2.72 2.04 0 0 Z " fill="#250D02" transform="translate(174,223)"/>
<path d="M0 0 C0.6875 1.8125 0.6875 1.8125 1 4 C-0.4375 5.75 -0.4375 5.75 -2 7 C-2.99 6.67 -3.98 6.34 -5 6 C-3.63016497 2.83884224 -3.0109362 2.0072908 0 0 Z " fill="#F7AF44" transform="translate(197,207)"/>
<path d="M0 0 C0.66 0.33 1.32 0.66 2 1 C-1.465 3.97 -1.465 3.97 -5 7 C-5.33 6.01 -5.66 5.02 -6 4 C-3.94766315 1.7522025 -2.99332739 0.9977758 0 0 Z " fill="#250C03" transform="translate(198,202)"/>
<path d="M0 0 C1.32 0.33 2.64 0.66 4 1 C1.36 2.98 -1.28 4.96 -4 7 C-3.6875 4.625 -3.6875 4.625 -3 2 C-2.01 1.34 -1.02 0.68 0 0 Z " fill="#321707" transform="translate(220,182)"/>
<path d="M0 0 C0 3 0 3 -2 5.1875 C-2.66 5.785625 -3.32 6.38375 -4 7 C-4.99 6.67 -5.98 6.34 -7 6 C-4.69 4.02 -2.38 2.04 0 0 Z " fill="#230E02" transform="translate(263,360)"/>
<path d="M0 0 C-1.28519565 2.86697492 -2.57129254 4.97607712 -5 7 C-5.66 7 -6.32 7 -7 7 C-6.61402985 4.20171644 -6.19863427 3.1794116 -4.0625 1.25 C-2 0 -2 0 0 0 Z " fill="#251001" transform="translate(267,143)"/>
<path d="M0 0 C0.33 0 0.66 0 1 0 C0.67 2.31 0.34 4.62 0 7 C-0.66 7 -1.32 7 -2 7 C-2.33 8.32 -2.66 9.64 -3 11 C-3.66 10.67 -4.32 10.34 -5 10 C-3.35 6.7 -1.7 3.4 0 0 Z " fill="#D5A154" transform="translate(190,384)"/>
<path d="M0 0 C0.99 0.33 1.98 0.66 3 1 C1.35 2.65 -0.3 4.3 -2 6 C-2.99 5.67 -3.98 5.34 -5 5 C-4.67 4.01 -4.34 3.02 -4 2 C-2.68 2 -1.36 2 0 2 C0 1.34 0 0.68 0 0 Z " fill="#E5AB56" transform="translate(251,367)"/>
<path d="M0 0 C0.66 0.33 1.32 0.66 2 1 C0.625 3 0.625 3 -1 5 C-1.66 5 -2.32 5 -3 5 C-3 5.66 -3 6.32 -3 7 C-4.65 7.33 -6.3 7.66 -8 8 C-5.33333333 5.33333333 -2.66666667 2.66666667 0 0 Z " fill="#2F1305" transform="translate(298,329)"/>
<path d="M0 0 C1.32 0 2.64 0 4 0 C4 0.66 4 1.32 4 2 C3.01 2 2.02 2 1 2 C1 2.66 1 3.32 1 4 C0.195625 4.28875 -0.60875 4.5775 -1.4375 4.875 C-4.1326468 5.73262568 -4.1326468 5.73262568 -5 8 C-4.67 6.68 -4.34 5.36 -4 4 C-2.68 3.67 -1.36 3.34 0 3 C0 2.01 0 1.02 0 0 Z " fill="#F5AF41" transform="translate(358,272)"/>
<path d="M0 0 C0.33 0.66 0.66 1.32 1 2 C0.22265625 3.7265625 0.22265625 3.7265625 -0.9375 5.625 C-1.618125 6.73875 -2.29875 7.8525 -3 9 C-3.66 9 -4.32 9 -5 9 C-5 8.34 -5 7.68 -5 7 C-4.34 7 -3.68 7 -3 7 C-3.061875 6.21625 -3.12375 5.4325 -3.1875 4.625 C-3.125625 3.75875 -3.06375 2.8925 -3 2 C-2.01 1.34 -1.02 0.68 0 0 Z " fill="#ECAC58" transform="translate(290,200)"/>
<path d="M0 0 C1.98 0.495 1.98 0.495 4 1 C2.515 3.475 2.515 3.475 1 6 C0.34 5.67 -0.32 5.34 -1 5 C-0.67 3.35 -0.34 1.7 0 0 Z " fill="#F9AC25" transform="translate(361,264)"/>
<path d="M0 0 C0.99 0.33 1.98 0.66 3 1 C1.37660195 2.70884005 -0.29319053 4.37446717 -2 6 C-2.66 6 -3.32 6 -4 6 C-3.6875 4.125 -3.6875 4.125 -3 2 C-2.01 1.34 -1.02 0.68 0 0 Z " fill="#2D1103" transform="translate(144,248)"/>
<path d="M0 0 C-1.29299694 2.88437779 -2.65941363 4.87219421 -5 7 C-5.66 6.67 -6.32 6.34 -7 6 C-7 5.34 -7 4.68 -7 4 C-2.52941176 0 -2.52941176 0 0 0 Z " fill="#F6AD3D" transform="translate(164,237)"/>
<path d="M0 0 C1.98 0.99 1.98 0.99 4 2 C3.67 5.3 3.34 8.6 3 12 C2.34 12 1.68 12 1 12 C1.01740234 11.07767578 1.01740234 11.07767578 1.03515625 10.13671875 C1.04417969 9.32847656 1.05320312 8.52023438 1.0625 7.6875 C1.07410156 6.88699219 1.08570313 6.08648437 1.09765625 5.26171875 C1.09657855 2.83138666 1.09657855 2.83138666 0 0 Z " fill="#2B1506" transform="translate(396,232)"/>
<path d="M0 0 C0.99 0.66 1.98 1.32 3 2 C0.03 4.475 0.03 4.475 -3 7 C-2.25 2.25 -2.25 2.25 0 0 Z " fill="#241202" transform="translate(189,208)"/>
<path d="M0 0 C0.66 0 1.32 0 2 0 C0.90931332 3.77545388 0.0916909 6.47043472 -3 9 C-3 7.35 -3 5.7 -3 4 C-2.34 4 -1.68 4 -1 4 C-0.67 2.68 -0.34 1.36 0 0 Z " fill="#DAA257" transform="translate(310,160)"/>
<path d="M0 0 C2.475 0.99 2.475 0.99 5 2 C3.25 5.875 3.25 5.875 1 7 C0.67 4.69 0.34 2.38 0 0 Z " fill="#F9AD3D" transform="translate(256,356)"/>
<path d="M0 0 C0.66 0.33 1.32 0.66 2 1 C-1.465 3.97 -1.465 3.97 -5 7 C-5 5.68 -5 4.36 -5 3 C-2.625 1.1875 -2.625 1.1875 0 0 Z " fill="#290F02" transform="translate(236,169)"/>
<path d="M0 0 C0.99 0.33 1.98 0.66 3 1 C0.64722731 3.72426311 -1.62496331 4.8141763 -5 6 C-3.35 4.02 -1.7 2.04 0 0 Z " fill="#2A1203" transform="translate(351,283)"/>
<path d="M0 0 C0.99 0.33 1.98 0.66 3 1 C0.36 2.98 -2.28 4.96 -5 7 C-4.67 5.68 -4.34 4.36 -4 3 C-3.34 3 -2.68 3 -2 3 C-2 2.34 -2 1.68 -2 1 C-1.34 0.67 -0.68 0.34 0 0 Z " fill="#280C03" transform="translate(125,265)"/>
<path d="M0 0 C0.66 0 1.32 0 2 0 C0.54744301 3.82946843 -1.42895561 5.12050295 -5 7 C-4.67 5.68 -4.34 4.36 -4 3 C-3.01 3 -2.02 3 -1 3 C-0.67 2.01 -0.34 1.02 0 0 Z " fill="#D79E59" transform="translate(390,247)"/>
<path d="M0 0 C2.0625 0.4375 2.0625 0.4375 4 1 C1.94766315 3.2477975 0.99332739 4.0022242 -2 5 C-1.125 1.125 -1.125 1.125 0 0 Z " fill="#E8AB52" transform="translate(154,242)"/>
<path d="M0 0 C0.99 0.33 1.98 0.66 3 1 C0.03 3.475 0.03 3.475 -3 6 C-2.625 3.5625 -2.625 3.5625 -2 1 C-1.34 0.67 -0.68 0.34 0 0 Z " fill="#250C00" transform="translate(227,176)"/>
<path d="M0 0 C0.66 0.33 1.32 0.66 2 1 C0.68 3.64 -0.64 6.28 -2 9 C-3 5 -3 5 -1.5625 2.25 C-1.046875 1.5075 -0.53125 0.765 0 0 Z " fill="#DCA957" transform="translate(317,147)"/>
<path d="M0 0 C-1.39332574 3.36720387 -2.9789286 4.9859524 -6 7 C-5.37162381 3.35541809 -4.14650034 0 0 0 Z " fill="#250C01" transform="translate(284,128)"/>
</svg>
